# xmcd
#
# Track frame offsets: 
#        150
#        13489
#        28351
#        45376
#        56187
#        68243
#        79914
#        95729
#        113385
#        128487
#        145489
#        162676
#        178452
#        190966
#
# Disc length: 2711 seconds
#
# Revision: 1
# Processed by: cddbd v1.5.2PL0 Copyright (c) Steve Scherf et al.
# Submitted via: ExactAudioCopyFreeDBPlugin 1.0
#
DISCID=d40a950e
DTITLE=G.G. Shinn - You Can Never Keep A Good Man Down
DYEAR=2000
DGENRE=R&B
TTITLE0=Someone, Somewhere
TTITLE1=Just Like A Woman
TTITLE2=Home At Last (My Little Girl)
TTITLE3=She's A Big Fat Woman
TTITLE4=Two Steps From The Blues
TTITLE5=Never Keep A Good Man Down
TTITLE6=Sashay
TTITLE7=Kiss Tomorrow Goodbye
TTITLE8=Leave My Kitten Alone
TTITLE9=You Hurt Me
TTITLE10=Certain Kind Of Something
TTITLE11=Heartbreak
TTITLE12=High Blood Pressure
TTITLE13=Baby Please
EXTD=
EXTT0=
EXTT1=
EXTT2=
EXTT3=
EXTT4=
EXTT5=
EXTT6=
EXTT7=
EXTT8=
EXTT9=
EXTT10=
EXTT11=
EXTT12=
EXTT13=
PLAYORDER=
